# xmcd
#
# Track frame offsets: 
#        182
#        103632
#        127220
#        141482
#        154682
#        176382
#        187107
#
# Disc length: 2725 seconds
#
# Revision: 11
# Processed by: cddbd v1.5.2PL0 Copyright (c) Steve Scherf et al.
# Submitted via: ExactAudioCopy v1.0b3
#
DISCID=640aa307
DTITLE=John Mayall And The Bluesbreakers feat. Mick Taylor - Bare Wire
DTITLE=s
DYEAR=1968
DGENRE=British Blues
TTITLE0=Bare Wires - Suite
TTITLE1=I'm A Stranger
TTITLE2=No Reply
TTITLE3=Harltey Quits
TTITLE4=Killing Time
TTITLE5=She's Too Young
TTITLE6=Sandy
EXTD=
EXTT0=Bare Wires/Where Did I Belong/Start Walking/Open A New Door/Fire
EXTT0=/I knowNow/Look In The Mirror
EXTT1=No Reply
EXTT2=
EXTT3=
EXTT4=
EXTT5=
EXTT6=
PLAYORDER=
